<?xml version="1.0" encoding="UTF-8"?>
<svg xmlns="http://www.w3.org/2000/svg" xmlns:xlink="http://www.w3.org/1999/xlink" width="553pt" height="382pt" viewBox="0 0 553 382" version="1.1">
<g id="surface1">
<path style=" stroke:none;fill-rule:nonzero;fill:rgb(0%,0%,0%);fill-opacity:1;" d="M 92.835938 381.335938 C 83.238281 379.042969 69.351562 366.980469 53.949219 347.5625 C 22.6875 308.144531 5.714844 263.933594 0.714844 208.910156 C -0.246094 198.320312 -0.238281 171.523438 0.734375 161.71875 C 5.304688 115.492188 21.460938 75.679688 51.113281 37.59375 C 60.191406 25.933594 75.238281 10.65625 82.445312 5.78125 C 92.644531 -1.113281 99.0625 -1.671875 105.222656 3.804688 C 107.734375 6.035156 108.3125 7.074219 108.632812 9.9375 C 109.238281 15.324219 106.480469 19.535156 93.648438 32.804688 C 75.71875 51.34375 67.445312 61.667969 58.285156 76.929688 C 37.476562 111.589844 28.574219 148.042969 29.847656 193.339844 C 30.53125 217.472656 33.109375 235.257812 38.796875 255.042969 C 43.921875 272.863281 50.070312 287.230469 59.277344 302.898438 C 68.523438 318.628906 76.292969 328.582031 91.828125 344.597656 C 105.460938 358.648438 108.84375 363.527344 108.84375 369.125 C 108.84375 374.691406 104.921875 379.726562 99.378906 381.265625 C 96.320312 382.117188 96.109375 382.121094 92.835938 381.335938 Z M 452.632812 381.546875 C 449.734375 380.929688 444.546875 375.347656 443.960938 372.210938 C 443.019531 367.15625 446.019531 362.652344 460.023438 348.136719 C 466.914062 340.992188 475.390625 331.601562 478.863281 327.265625 C 504.261719 295.558594 518.375 260.277344 522.140625 219.070312 C 523.300781 206.363281 522.699219 173.632812 521.082031 161.359375 C 517.691406 135.648438 511.433594 114.617188 500.59375 92.5 C 490.222656 71.339844 479.496094 56.328125 461.371094 37.632812 C 449.203125 25.078125 445.617188 20.492188 444.394531 15.933594 C 443.195312 11.464844 444.054688 8.144531 447.40625 4.335938 C 452 -0.886719 457.246094 -1.355469 465.457031 2.734375 C 475.394531 7.679688 488.277344 20.597656 503.226562 40.617188 C 533.308594 80.890625 548.824219 125.195312 552.554688 181.476562 C 555.722656 229.292969 544.136719 277.699219 519.921875 317.785156 C 503.210938 345.453125 477.714844 373.808594 464.136719 379.820312 C 460.589844 381.390625 455.496094 382.15625 452.632812 381.546875 Z M 152.367188 352.390625 C 144.242188 349.921875 139.527344 341.792969 141.488281 333.613281 C 142.699219 328.554688 147.773438 323.355469 152.707031 322.113281 C 157.675781 320.859375 414.773438 320.859375 419.746094 322.113281 C 424.832031 323.394531 429.828125 328.609375 430.9375 333.796875 C 432.394531 340.597656 429.34375 347.554688 423.414062 350.957031 L 420.277344 352.753906 L 287.335938 352.878906 C 214.21875 352.949219 153.480469 352.726562 152.367188 352.390625 Z M 253.636719 289.824219 C 228.949219 280.832031 208.40625 263.3125 197.890625 242.277344 C 192.046875 230.582031 188.652344 216.414062 188.65625 203.71875 C 188.660156 186.554688 195.363281 170.199219 215.789062 137.523438 C 231.003906 113.1875 233.59375 108.753906 238.066406 99.40625 C 244.019531 86.96875 245.984375 79.582031 246.109375 69.144531 C 246.226562 59.171875 244.734375 53.253906 240.144531 45.511719 C 236.886719 40.019531 229.558594 31.746094 226.582031 30.207031 C 221.734375 27.695312 220.726562 24.285156 224.171875 22.027344 C 229.621094 18.453125 244.503906 20.71875 258.175781 27.203125 C 273.648438 34.539062 285.050781 45.078125 292.480469 58.894531 C 298.203125 69.542969 300.507812 77.707031 304.390625 101.027344 C 308.699219 126.90625 312.96875 135.117188 321.605469 134.125 C 326.179688 133.597656 329.035156 131.859375 330.964844 128.425781 C 334.03125 122.960938 332.71875 115.476562 326.507812 103.09375 C 321.4375 92.972656 321.75 89.917969 327.699219 91.492188 C 330.78125 92.308594 340.78125 100.484375 347.703125 107.847656 C 365.023438 126.273438 373.640625 143.015625 377.789062 166.277344 C 379.960938 178.476562 380.144531 198.707031 378.171875 209.28125 C 375.6875 222.621094 370.648438 235.210938 363.488281 245.976562 C 355.503906 257.980469 338.847656 273.171875 326.738281 279.492188 C 321.269531 282.34375 319.371094 282.519531 316.691406 280.40625 C 313.355469 277.78125 314.0625 275.957031 321.429688 268.117188 C 332.503906 256.34375 338.15625 247.972656 341.4375 238.492188 C 346.5 223.871094 343.980469 203.484375 335.507812 190.492188 C 331.996094 185.109375 326.851562 180.363281 324.53125 180.363281 C 323.257812 180.363281 323.46875 182.042969 325.828125 190.695312 C 326.652344 193.726562 327.328125 197.429688 327.328125 198.925781 C 327.328125 206.839844 316.171875 212.578125 306.339844 209.71875 C 298.351562 207.394531 294.832031 200.140625 295.886719 188.191406 C 296.214844 184.496094 296.507812 177.785156 296.539062 173.277344 C 296.59375 165.328125 296.515625 164.925781 294 159.960938 C 289.101562 150.289062 277.769531 140.324219 271.667969 140.324219 C 269.035156 140.324219 268.820312 140.484375 268.820312 142.421875 C 268.820312 143.71875 269.550781 145.195312 270.746094 146.3125 C 277.066406 152.21875 278.253906 164.320312 273.566406 175.007812 C 270.664062 181.609375 267.398438 185.351562 256.234375 194.835938 C 241.546875 207.320312 236.8125 213.261719 233.878906 222.910156 C 232.519531 227.375 232.378906 229.191406 232.761719 237.371094 C 233.402344 251.101562 236.199219 260.203125 242.734375 269.835938 C 247.75 277.230469 253.621094 281.921875 261.597656 284.90625 C 265.4375 286.339844 265.859375 286.710938 265.859375 288.644531 C 265.859375 290.882812 264.15625 292.355469 261.648438 292.285156 C 260.910156 292.265625 257.304688 291.15625 253.636719 289.824219 Z M 253.636719 289.824219 "/>
</g>
</svg>
