<?xml version="1.0" encoding="UTF-8"?>
<svg xmlns="http://www.w3.org/2000/svg" xmlns:xlink="http://www.w3.org/1999/xlink" width="432pt" height="382pt" viewBox="0 0 432 382" version="1.1">
<defs>
<linearGradient id="linear0" gradientUnits="userSpaceOnUse" x1="0.5" y1="1.00019" x2="0.5" y2="0" gradientTransform="matrix(431.992187,0,0,381.660156,0,0)">
<stop offset="0" style="stop-color:rgb(12.54902%,45.882353%,73.72549%);stop-opacity:1;"/>
<stop offset="1" style="stop-color:rgb(16.078431%,66.666667%,88.235294%);stop-opacity:1;"/>
</linearGradient>
<linearGradient id="linear1" gradientUnits="userSpaceOnUse" x1="0.50024" y1="1.00019" x2="0.50024" y2="0" gradientTransform="matrix(108.335938,0,0,381.660156,0,0)">
<stop offset="0" style="stop-color:rgb(3.921569%,41.568627%,65.882353%);stop-opacity:1;"/>
<stop offset="1" style="stop-color:rgb(8.627451%,60%,78.431373%);stop-opacity:1;"/>
</linearGradient>
<linearGradient id="linear2" gradientUnits="userSpaceOnUse" x1="0.49981" y1="1.00019" x2="0.49981" y2="0" gradientTransform="matrix(108.507813,0,0,381.660156,107.828125,0)">
<stop offset="0" style="stop-color:rgb(12.54902%,45.882353%,73.72549%);stop-opacity:1;"/>
<stop offset="1" style="stop-color:rgb(16.078431%,66.666667%,88.235294%);stop-opacity:1;"/>
</linearGradient>
<linearGradient id="linear3" gradientUnits="userSpaceOnUse" x1="0.50019" y1="1.00019" x2="0.50019" y2="0" gradientTransform="matrix(108.503906,0,0,381.660156,215.660156,0)">
<stop offset="0" style="stop-color:rgb(3.921569%,41.568627%,65.882353%);stop-opacity:1;"/>
<stop offset="1" style="stop-color:rgb(8.627451%,60%,78.431373%);stop-opacity:1;"/>
</linearGradient>
<linearGradient id="linear4" gradientUnits="userSpaceOnUse" x1="0.4998" y1="1.00019" x2="0.4998" y2="0" gradientTransform="matrix(108.335938,0,0,381.660156,323.65625,0)">
<stop offset="0" style="stop-color:rgb(12.54902%,45.882353%,73.72549%);stop-opacity:1;"/>
<stop offset="1" style="stop-color:rgb(16.078431%,66.666667%,88.235294%);stop-opacity:1;"/>
</linearGradient>
</defs>
<g id="surface1">
<path style=" stroke:none;fill-rule:nonzero;fill:url(#linear0);" d="M 324.164062 0.167969 L 324.164062 0 L 323.828125 0.167969 L 323.65625 0 L 323.65625 0.167969 L 215.996094 43.269531 L 108.335938 0.167969 L 108.335938 0 L 108.167969 0.167969 L 107.828125 0 L 107.828125 0.167969 L 0 43.441406 L 0 381.660156 L 108.167969 340.25 L 215.660156 381.492188 L 215.660156 381.660156 L 216.335938 381.660156 L 216.335938 381.492188 L 323.828125 340.25 L 431.992188 381.660156 L 431.992188 43.441406 Z M 324.164062 0.167969 "/>
<path style=" stroke:none;fill-rule:nonzero;fill:url(#linear1);" d="M 0 43.441406 L 0 381.660156 L 108.335938 340.25 L 108.335938 0 Z M 0 43.441406 "/>
<path style=" stroke:none;fill-rule:nonzero;fill:url(#linear2);" d="M 216.335938 43.441406 L 216.335938 381.660156 L 107.828125 340.25 L 107.828125 0 Z M 216.335938 43.441406 "/>
<path style=" stroke:none;fill-rule:nonzero;fill:url(#linear3);" d="M 215.660156 43.441406 L 215.660156 381.660156 L 324.164062 340.25 L 324.164062 0 Z M 215.660156 43.441406 "/>
<path style=" stroke:none;fill-rule:nonzero;fill:url(#linear4);" d="M 431.992188 43.441406 L 431.992188 381.660156 L 323.65625 340.25 L 323.65625 0 Z M 431.992188 43.441406 "/>
<path style=" stroke:none;fill-rule:nonzero;fill:rgb(100%,100%,100%);fill-opacity:1;" d="M 370.90625 197.761719 C 367.027344 186.4375 368.207031 167 366.183594 164.125 C 353.527344 146.714844 307.457031 143.671875 286.703125 120.855469 C 290.414062 109.527344 282.988281 100.234375 275.394531 93.132812 C 264.089844 84.851562 248.226562 88.570312 236.078125 91.78125 C 222.242188 88.90625 209.414062 83.835938 196.085938 79.949219 C 166.046875 76.738281 136.347656 97.867188 136.347656 97.867188 C 114.917969 111.386719 81.335938 139.617188 65.304688 156.179688 C 69.1875 156.6875 73.40625 153.8125 77.792969 153.308594 L 108.671875 145.363281 C 95.847656 156.011719 68.847656 174.605469 61.085938 189.308594 C 70.707031 186.097656 90.785156 174.941406 100.910156 174.097656 C 92.136719 181.871094 73.910156 196.578125 68.003906 205.875 C 68.679688 206.210938 68.175781 207.058594 68.34375 207.566406 C 75.9375 203.339844 94.160156 192.519531 102.429688 191.84375 C 93.824219 200.804688 78.128906 217.875 74.585938 229.367188 C 82.011719 224.46875 100.742188 214.664062 108.84375 211.621094 C 106.984375 216.183594 102.765625 219.566406 100.066406 224.128906 C 96.355469 230.382812 87.578125 237.480469 87.242188 245.089844 C 93.824219 239.003906 101.921875 233.765625 110.023438 229.367188 C 106.3125 236.976562 99.730469 243.230469 97.875 252.1875 C 103.273438 246.949219 113.230469 244.414062 120.148438 242.046875 L 119.304688 242.890625 C 118.796875 243.398438 111.035156 248.808594 105.804688 254.890625 C 110.53125 254.554688 106.984375 254.046875 112.890625 255.398438 L 116.097656 255.566406 C 114.578125 256.414062 112.722656 257.257812 110.867188 258.273438 C 108 259.792969 104.960938 261.484375 101.753906 263.175781 C 114.578125 279.570312 130.441406 292.585938 148.496094 301.542969 C 172.121094 313.207031 198.109375 316.925781 223.929688 313.882812 L 222.914062 309.320312 C 222.410156 307.460938 221.902344 305.601562 221.226562 303.910156 C 221.226562 303.742188 221.226562 303.742188 221.058594 303.570312 C 229.835938 287.175781 225.277344 258.949219 247.890625 247.625 C 263.078125 239.847656 264.933594 235.621094 282.316406 238.835938 C 291.765625 240.695312 312.519531 247.792969 322.308594 245.59375 C 331.25 240.523438 335.808594 238.328125 343.570312 232.410156 C 353.359375 234.101562 356.394531 233.257812 360.105469 228.015625 C 356.902344 232.582031 366.351562 210.4375 370.402344 201.988281 Z M 370.90625 197.761719 "/>
<path style=" stroke:none;fill-rule:nonzero;fill:rgb(94.901961%,94.901961%,94.901961%);fill-opacity:1;" d="M 105.46875 255.0625 C 109.179688 254.890625 107.660156 254.386719 110.023438 255.0625 L 110.023438 250.496094 C 108.503906 251.679688 106.984375 253.371094 105.46875 255.0625 Z M 61.085938 189.308594 C 70.707031 186.097656 90.785156 174.941406 100.910156 174.097656 C 92.136719 181.871094 73.910156 196.578125 68.003906 205.875 C 68.679688 206.210938 68.175781 207.058594 68.34375 207.566406 C 75.9375 203.339844 94.160156 192.519531 102.429688 191.84375 C 93.824219 200.804688 78.128906 217.875 74.585938 229.367188 C 82.011719 224.46875 100.742188 214.664062 108.84375 211.621094 C 106.984375 216.183594 102.765625 219.566406 100.066406 224.128906 C 96.355469 230.382812 87.578125 237.480469 87.242188 245.089844 C 93.824219 239.003906 101.921875 233.765625 110.023438 229.367188 C 106.3125 236.976562 99.730469 243.230469 97.875 252.1875 C 100.910156 249.144531 105.636719 247.117188 110.359375 245.425781 L 110.359375 116.964844 C 93.484375 130.152344 75.9375 145.53125 65.644531 156.179688 C 69.523438 156.6875 73.742188 153.8125 78.128906 153.308594 L 108.671875 145.363281 C 95.847656 155.84375 69.019531 174.433594 61.085938 189.308594 Z M 110.191406 258.78125 C 107.492188 260.300781 104.625 261.820312 101.585938 263.34375 C 104.285156 266.722656 107.15625 270.105469 110.191406 273.316406 Z M 323.65625 142.488281 C 309.820312 137.25 295.816406 130.996094 286.871094 121.023438 C 290.582031 109.699219 283.160156 100.402344 275.566406 93.300781 C 264.257812 85.019531 248.394531 88.738281 236.246094 91.949219 C 229.496094 90.429688 222.914062 88.570312 216.503906 86.542969 L 216.503906 314.726562 C 219.035156 314.558594 221.398438 314.390625 223.929688 314.050781 L 222.914062 309.488281 C 222.410156 307.628906 221.902344 305.769531 221.226562 304.078125 C 221.226562 303.910156 221.226562 303.910156 221.058594 303.742188 C 229.835938 287.34375 225.277344 259.117188 247.890625 247.792969 C 263.078125 240.019531 264.933594 235.792969 282.316406 239.003906 C 291.765625 240.863281 312.519531 247.960938 322.308594 245.765625 C 322.8125 245.59375 323.152344 245.257812 323.65625 245.089844 Z M 323.65625 142.488281 "/>
</g>
</svg>
